<?xml version="1.0" encoding="utf-8"?>
<!-- Generator: Adobe Illustrator 19.2.1, SVG Export Plug-In . SVG Version: 6.00 Build 0)  -->
<svg version="1.1" id="Layer_1" xmlns="http://www.w3.org/2000/svg" xmlns:xlink="http://www.w3.org/1999/xlink" x="0px" y="0px"
	 viewBox="0 0 310.7 191.2" style="enable-background:new 0 0 310.7 191.2;" xml:space="preserve">
<style type="text/css">
	.st0{fill:#A0A0A0;}
	.st1{fill:#894320;}
	.st2{fill:#A3582E;}
	.st3{fill:none;stroke:#894320;stroke-linecap:round;stroke-linejoin:round;stroke-miterlimit:10;}
	.st4{fill:#C4C4C4;}
	.st5{fill:#006837;}
	.st6{fill:#808080;}
</style>
<g>
	<path class="st0" d="M242.3,76.8c-10.1-3.7-10.6-7-10.7-7.4c-1.7-8.5,12.5-4.1,12.9-3.9c-6.4-12.8-14.6-12.4-15.9-12.3
		c-8,1.2-8.8-2.3-8.9-2.6c-3.3-7.8,12.4-6.6,12.9-6.3c-8.3-11.4-19.6-9.3-20.4-9.1c-8,1.7-9-0.2-9.2-0.4c-6.2-7.2,9.1-10.3,9.4-10.5
		c-9.6-8.1-21.6-2.1-22.3-1.8c-5.9,2.6-7.3,1.6-7.9,1.1c-6-5.5,6.8-11.9,7.6-11.9c-16.6-5.1-22.1,3.7-22.4,4.4
		c-3.3,5-7.3,3.8-7.5,3.6c-7.2-3.5,5.1-12.6,5.1-12.9c-13.5-2.2-19.9,8.1-20.2,8.5c-4.4,5.9-6.9,4.9-7.7,4.7
		c-6.2-1.6,1.8-13.6,1.9-13.4c-10.8,0.6-16.1,11-16.7,12.6c-2.9,8.3-7.2,7.4-6.9,7.7c-7.4,1.4-2.5-11.9-2-12.9
		C102.1,19.6,101,30.2,101,31c-0.9,8-4.1,8.2-4.3,8.3c-6.9,1.9-4.4-13-4.4-12.6c-8.8,2.8-9,17.2-8.7,17.8
		c0.6,11.1-1.4,11.3-1.5,11.6c-7.3,5.2-8.5-10.5-8.5-10.3c-7.3,10.9-2.3,22.1-2.3,22.7c1.7,5.9,0.7,6.3,0.5,6.7
		c-3.9,5.4-11-7-11.2-8c-3.2,9.5,1,19.9,1.9,21.2c6.8,10.2,1.9,11.2,1.7,10.9c-6.1-0.7-10.7-7.1-11.2-7.1c-0.8,5.5,0.8,10.7,2,13.7
		h86.4c0.1-5.8,4.8-10.5,10.6-10.5c5.8,0,10.5,4.7,10.6,10.5h86.7c-1.9-4.3-5.2-6.5-5.7-6.8c-6-4-5.4-6-5.5-6.6
		c0.5-8.1,13-2.1,13.1-1.7C251.9,81.8,243.1,76.9,242.3,76.8z"/>
	<g>
	</g>
	<g>
		<polygon class="st1" points="41.1,90.2 37.5,54.2 25.6,56.4 		"/>
		<polygon class="st2" points="49,52.1 37.5,54.2 41.1,90.2 		"/>
	</g>
	<polygon class="st2" points="17.1,78.3 12.2,83.1 27,102.6 	"/>
	<polygon class="st1" points="27.1,102.9 27,102.6 12.2,83.1 5.5,89.6 	"/>
	<path class="st3" d="M109.7,105.9C109.7,105.9,109.8,105.9,109.7,105.9C109.8,105.9,109.8,105.9,109.7,105.9z"/>
	<path class="st3" d="M186.1,11.6C186.1,11.6,186.1,11.6,186.1,11.6C186.1,11.6,186.1,11.6,186.1,11.6z"/>
	<g>
		<polygon class="st1" points="268.9,90.2 272.5,54.2 284.4,56.4 		"/>
		<polygon class="st2" points="261,52.1 272.5,54.2 268.9,90.2 		"/>
	</g>
	<polygon class="st2" points="292.9,78.3 297.8,83.1 283,102.6 	"/>
	<polygon class="st1" points="282.9,102.9 283,102.6 297.8,83.1 304.5,89.6 	"/>
	<path class="st4" d="M152.1,95.5c5.8,0,10.5,4.7,10.6,10.5h73.3c0-46.4-37.6-84-84-84c-46.4,0-84,37.6-84,84h73.5
		C141.6,100.2,146.3,95.5,152.1,95.5z"/>
</g>
<rect x="5.5" y="121.9" class="st5" width="300" height="2"/>
<g>
	<path d="M54.5,137.8l-5.9,21.8h-6.2l-3.9-14.2l-3.8,14.2h-6.2l-5.9-21.8h5.9l3.3,15l4-15h5.6l3.8,15l3.5-15H54.5z"/>
	<path d="M79.4,148.7c0,3.5-1,6.2-3,8.3c-2,2-4.7,3.1-8.3,3.1c-3.5,0-6.3-1-8.2-3.1c-2-2-3-4.8-3-8.3c0-3.5,1-6.3,3-8.3
		c2-2,4.7-3.1,8.2-3.1c3.5,0,6.2,1,8.2,3.1C78.4,142.5,79.4,145.2,79.4,148.7z M72,154.3c0.5-0.7,1-1.4,1.2-2.4s0.4-2,0.4-3.2
		c0-1.3-0.2-2.4-0.5-3.3s-0.7-1.7-1.2-2.2c-0.5-0.6-1.1-1-1.7-1.3s-1.3-0.4-2-0.4c-0.7,0-1.4,0.1-2,0.4s-1.2,0.7-1.7,1.3
		c-0.5,0.5-0.9,1.3-1.2,2.3c-0.3,1-0.5,2.1-0.5,3.3c0,1.3,0.1,2.4,0.4,3.3s0.7,1.7,1.2,2.2s1.1,1,1.7,1.3s1.3,0.4,2.1,0.4
		s1.4-0.1,2.1-0.4C70.9,155.3,71.5,154.8,72,154.3z"/>
	<path d="M104.9,148.7c0,3.5-1,6.2-3,8.3c-2,2-4.7,3.1-8.3,3.1c-3.5,0-6.3-1-8.2-3.1c-2-2-3-4.8-3-8.3c0-3.5,1-6.3,3-8.3
		c2-2,4.7-3.1,8.2-3.1c3.5,0,6.2,1,8.2,3.1C103.9,142.5,104.9,145.2,104.9,148.7z M97.5,154.3c0.5-0.7,1-1.4,1.2-2.4s0.4-2,0.4-3.2
		c0-1.3-0.2-2.4-0.5-3.3s-0.7-1.7-1.2-2.2c-0.5-0.6-1.1-1-1.7-1.3s-1.3-0.4-2-0.4c-0.7,0-1.4,0.1-2,0.4s-1.2,0.7-1.7,1.3
		c-0.5,0.5-0.9,1.3-1.2,2.3c-0.3,1-0.5,2.1-0.5,3.3c0,1.3,0.1,2.4,0.4,3.3s0.7,1.7,1.2,2.2s1.1,1,1.7,1.3s1.3,0.4,2.1,0.4
		s1.4-0.1,2.1-0.4C96.4,155.3,97,154.8,97.5,154.3z"/>
	<path d="M129.8,148.7c0,2-0.5,3.9-1.4,5.5c-0.9,1.6-2.1,2.8-3.5,3.7c-1.1,0.6-2.2,1.1-3.5,1.3s-2.8,0.4-4.5,0.4h-7.7v-21.8h7.9
		c1.8,0,3.3,0.1,4.6,0.4c1.3,0.3,2.4,0.7,3.3,1.3c1.5,0.9,2.7,2.2,3.6,3.7C129.4,144.8,129.8,146.6,129.8,148.7z M124,148.7
		c0-1.4-0.3-2.7-0.8-3.7s-1.4-1.8-2.5-2.4c-0.6-0.3-1.2-0.5-1.8-0.6c-0.6-0.1-1.5-0.2-2.7-0.2h-1.4v13.7h1.4c1.3,0,2.3-0.1,2.9-0.2
		s1.2-0.3,1.8-0.7c1-0.6,1.8-1.4,2.3-2.4C123.8,151.4,124,150.1,124,148.7z"/>
	<path d="M149.7,142h-10v4.1h9.3v4.2h-9.3v9.3h-5.6v-21.8h15.6V142z"/>
	<path d="M173.8,159.6H168l-1.5-4.4h-8.1l-1.5,4.4h-5.7l8.1-21.8h6.5L173.8,159.6z M165.1,151.2l-2.7-7.8l-2.7,7.8H165.1z"/>
	<path d="M186.8,160.1c-1.6,0-3.1-0.2-4.5-0.7c-1.4-0.5-2.6-1.2-3.5-2.1s-1.8-2.1-2.3-3.5c-0.5-1.4-0.8-3.1-0.8-4.9
		c0-1.7,0.3-3.3,0.8-4.7s1.3-2.6,2.3-3.6c0.9-1,2.1-1.7,3.5-2.2c1.4-0.5,2.9-0.8,4.6-0.8c0.9,0,1.7,0.1,2.5,0.2
		c0.7,0.1,1.4,0.2,2,0.4c0.7,0.2,1.2,0.4,1.8,0.6c0.5,0.2,1,0.4,1.4,0.6v5.3h-0.6c-0.3-0.2-0.6-0.5-1-0.8c-0.4-0.3-0.9-0.6-1.4-0.9
		c-0.5-0.3-1.1-0.6-1.7-0.8s-1.3-0.3-2-0.3c-0.8,0-1.5,0.1-2.3,0.4c-0.7,0.2-1.4,0.7-2,1.2c-0.6,0.6-1,1.3-1.4,2.2
		c-0.4,0.9-0.5,2-0.5,3.3c0,1.4,0.2,2.5,0.6,3.4s0.9,1.6,1.5,2.2c0.6,0.5,1.3,0.9,2,1.1c0.7,0.2,1.5,0.3,2.2,0.3
		c0.7,0,1.4-0.1,2-0.3s1.3-0.5,1.9-0.8c0.5-0.3,0.9-0.6,1.3-0.9c0.4-0.3,0.7-0.6,1-0.8h0.6v5.2c-0.5,0.2-1.1,0.5-1.6,0.7
		s-1,0.4-1.6,0.6c-0.7,0.2-1.4,0.4-2,0.5S187.9,160.1,186.8,160.1z"/>
	<path d="M215.7,142h-6.8v17.6h-5.6V142h-6.8v-4.2h19.2V142z"/>
	<path d="M240.3,148.7c0,3.5-1,6.2-3,8.3c-2,2-4.7,3.1-8.3,3.1c-3.5,0-6.3-1-8.2-3.1c-2-2-3-4.8-3-8.3c0-3.5,1-6.3,3-8.3
		c2-2,4.7-3.1,8.2-3.1c3.5,0,6.2,1,8.2,3.1C239.3,142.5,240.3,145.2,240.3,148.7z M232.8,154.3c0.5-0.7,1-1.4,1.2-2.4s0.4-2,0.4-3.2
		c0-1.3-0.2-2.4-0.5-3.3s-0.7-1.7-1.2-2.2c-0.5-0.6-1.1-1-1.7-1.3s-1.3-0.4-2-0.4c-0.7,0-1.4,0.1-2,0.4c-0.6,0.3-1.2,0.7-1.7,1.3
		c-0.5,0.5-0.9,1.3-1.2,2.3c-0.3,1-0.5,2.1-0.5,3.3c0,1.3,0.1,2.4,0.4,3.3c0.3,0.9,0.7,1.7,1.2,2.2s1.1,1,1.7,1.3s1.3,0.4,2.1,0.4
		s1.4-0.1,2.1-0.4C231.8,155.3,232.3,154.8,232.8,154.3z"/>
	<path d="M265.6,159.6h-6.9l-5.9-8h-2.6v8h-5.6v-21.8h9.4c1.3,0,2.4,0.1,3.3,0.2s1.8,0.5,2.6,1c0.8,0.5,1.5,1.1,2,1.9
		c0.5,0.8,0.7,1.8,0.7,2.9c0,1.6-0.4,2.9-1.1,3.9c-0.7,1-1.8,1.9-3.2,2.5L265.6,159.6z M256.8,144.5c0-0.5-0.1-1-0.3-1.4
		s-0.6-0.7-1.2-0.9c-0.4-0.2-0.8-0.3-1.3-0.3s-1.1-0.1-1.8-0.1h-2v5.9h1.7c0.9,0,1.7,0,2.3-0.1s1.1-0.3,1.5-0.6
		c0.4-0.3,0.7-0.6,0.9-1C256.7,145.6,256.8,145.1,256.8,144.5z"/>
	<path d="M287.2,137.8l-8,13.4v8.4h-5.6v-8.2l-8.2-13.6h6.4l4.7,8.4l4.5-8.4H287.2z"/>
</g>
<g>
	<path class="st6" d="M114.8,185.1h-2.5v-2.9h2.5V185.1z"/>
	<path class="st6" d="M133.7,173.6l-3,11.5h-1.8l-2.9-8.8l-2.9,8.8h-1.8l-3-11.5h2l2.1,8.9l2.9-8.9h1.6l2.9,8.9l2-8.9H133.7z"/>
	<path class="st6" d="M145.1,185.1h-1.9v-1.2c-0.2,0.1-0.4,0.3-0.7,0.5c-0.3,0.2-0.6,0.4-0.8,0.5c-0.3,0.2-0.7,0.3-1.1,0.4
		c-0.4,0.1-0.9,0.2-1.5,0.2c-1,0-1.9-0.3-2.6-1s-1.1-1.6-1.1-2.6c0-0.9,0.2-1.6,0.6-2.1c0.4-0.5,0.9-1,1.6-1.3
		c0.7-0.3,1.5-0.5,2.5-0.6s2-0.2,3.1-0.2v-0.3c0-0.4-0.1-0.8-0.2-1.1c-0.2-0.3-0.4-0.5-0.7-0.7c-0.3-0.2-0.6-0.3-1-0.3
		s-0.8-0.1-1.2-0.1c-0.5,0-1.1,0.1-1.7,0.2c-0.6,0.1-1.3,0.3-1.9,0.6h-0.1v-2c0.4-0.1,0.9-0.2,1.6-0.3s1.4-0.2,2.1-0.2
		c0.8,0,1.5,0.1,2.1,0.2c0.6,0.1,1.1,0.4,1.6,0.7c0.4,0.3,0.8,0.7,1,1.2c0.2,0.5,0.3,1.1,0.3,1.9V185.1z M143.2,182.3v-3.2
		c-0.6,0-1.3,0.1-2.1,0.2c-0.8,0.1-1.4,0.2-1.9,0.3c-0.6,0.2-1,0.4-1.3,0.7c-0.3,0.3-0.5,0.8-0.5,1.4c0,0.7,0.2,1.1,0.6,1.5
		c0.4,0.3,1,0.5,1.8,0.5c0.7,0,1.3-0.1,1.9-0.4C142.2,183,142.7,182.6,143.2,182.3z"/>
	<path class="st6" d="M163.2,173.6l-3,11.5h-1.8l-2.9-8.8l-2.9,8.8h-1.8l-3-11.5h2l2.1,8.9l2.9-8.9h1.6l2.9,8.9l2-8.9H163.2z"/>
	<path class="st6" d="M168.4,185.1h-2.5v-2.9h2.5V185.1z"/>
	<path class="st6" d="M182.9,179.2c0,0.9-0.1,1.8-0.4,2.5c-0.3,0.8-0.6,1.4-1.1,2c-0.5,0.5-1,0.9-1.6,1.2c-0.6,0.3-1.3,0.4-1.9,0.4
		c-0.6,0-1.1-0.1-1.6-0.2c-0.5-0.1-1-0.3-1.5-0.6v4.8h-1.9v-15.7h1.9v1.2c0.5-0.4,1.1-0.8,1.7-1.1c0.6-0.3,1.3-0.4,2-0.4
		c1.4,0,2.5,0.5,3.2,1.6C182.6,175.9,182.9,177.4,182.9,179.2z M180.9,179.3c0-1.4-0.2-2.4-0.7-3.1s-1.2-1-2.2-1
		c-0.6,0-1.1,0.1-1.7,0.4s-1.1,0.6-1.6,0.9v6.5c0.5,0.2,1,0.4,1.4,0.5c0.4,0.1,0.8,0.1,1.3,0.1c1.1,0,1.9-0.4,2.5-1.1
		S180.9,180.7,180.9,179.3z"/>
	<path class="st6" d="M187.9,185.1H186v-16h1.9V185.1z"/>
</g>
</svg>
